G Serif wdt1000-wth100-con100-asc0-dsc0-xht0-srf0-prp500.ufo
<glyph name="five" format="1">
  <advance width="610"/>
  <unicode hex="0035"/>
  <outline>
    <contour>
      <point x="115" y="407" type="line"/>
      <point x="166" y="659" type="line"/>
      <point x="153" y="638" type="line"/>
      <point x="515" y="638" type="line"/>
      <point x="515" y="710" type="line"/>
      <point x="156" y="710" type="line"/>
      <point x="95" y="407" type="line"/>
      <point x="95" y="393" type="line"/>
      <point x="217" y="393" type="line" smooth="yes"/>
      <point x="390" y="393"/>
      <point x="469.0" y="339.3461538461538"/>
      <point x="469" y="207" type="curve" smooth="yes"/>
      <point x="469.0" y="75.49315068493152"/>
      <point x="399" y="15"/>
      <point x="312" y="15" type="curve" smooth="yes"/>
      <point x="212" y="15"/>
      <point x="149" y="70"/>
      <point x="139" y="204" type="curve"/>
      <point x="45" y="204" type="line"/>
      <point x="59" y="61"/>
      <point x="165" y="-10"/>
      <point x="312" y="-10" type="curve" smooth="yes"/>
      <point x="445" y="-10"/>
      <point x="560" y="66"/>
      <point x="560" y="207" type="curve" smooth="yes"/>
      <point x="560.0" y="338.75370464997445"/>
      <point x="454.0" y="418"/>
      <point x="223" y="418" type="curve" smooth="yes"/>
      <point x="108" y="418" type="line"/>
    </contour>
  </outline>
</glyph>
<glyph name="B" format="1">
  <advance width="693"/>
  <unicode hex="0042"/>
  <outline>
    <contour>
      <point x="153" y="0" type="line"/>
      <point x="241" y="0" type="line"/>
      <point x="241" y="710" type="line"/>
      <point x="153" y="710" type="line"/>
    </contour>
    <contour>
      <point x="343" y="380" type="curve"/>
      <point x="334" y="368" type="line"/>
      <point x="507" y="368"/>
      <point x="592.0" y="430.9651162790698"/>
      <point x="592" y="530" type="curve" smooth="yes"/>
      <point x="592" y="640"/>
      <point x="506" y="710"/>
      <point x="343" y="710" type="curve"/>
      <point x="53" y="710" type="line"/>
      <point x="53" y="690" type="line"/>
      <point x="153" y="690" type="line"/>
      <point x="153" y="690"/>
      <point x="153" y="690"/>
      <point x="153" y="690" type="curve"/>
      <point x="198" y="690" type="line"/>
      <point x="343" y="690" type="line"/>
      <point x="457" y="690"/>
      <point x="502.0" y="631.8181818181818"/>
      <point x="502" y="530" type="curve" smooth="yes"/>
      <point x="502.0" y="442.87096774193543"/>
      <point x="462" y="382"/>
      <point x="344" y="382" type="curve"/>
      <point x="199" y="382" type="line"/>
      <point x="199" y="362" type="line"/>
      <point x="353" y="362" type="line"/>
      <point x="483" y="362"/>
      <point x="531.0" y="291.0287769784173"/>
      <point x="531" y="199" type="curve" smooth="yes"/>
      <point x="531.0" y="83.82945736434108"/>
      <point x="479" y="20"/>
      <point x="353" y="20" type="curve"/>
      <point x="212" y="20" type="line"/>
      <point x="212" y="20"/>
      <point x="153" y="20"/>
      <point x="153" y="20" type="curve"/>
      <point x="153" y="20"/>
      <point x="153" y="20"/>
      <point x="153" y="20" type="curve"/>
      <point x="53" y="20" type="line"/>
      <point x="53" y="0" type="line"/>
      <point x="353" y="0" type="line"/>
      <point x="528" y="0"/>
      <point x="623" y="76"/>
      <point x="623" y="199" type="curve" smooth="yes"/>
      <point x="623.0" y="308.9267015706806"/>
      <point x="528" y="380"/>
    </contour>
  </outline>
</glyph>
<glyph name="D" format="1">
  <advance width="819"/>
  <unicode hex="0044"/>
  <outline>
    <contour>
      <point x="153" y="0" type="line"/>
      <point x="241" y="0" type="line"/>
      <point x="241" y="710" type="line"/>
      <point x="153" y="710" type="line"/>
    </contour>
    <contour>
      <point x="756.0" y="357.0" type="curve" smooth="yes"/>
      <point x="756.0" y="574.0"/>
      <point x="604.0" y="710.0"/>
      <point x="382.0" y="710.0" type="curve" smooth="yes"/>
      <point x="53.0" y="710.0" type="line"/>
      <point x="53.0" y="690.0" type="line"/>
      <point x="153" y="690" type="line"/>
      <point x="153" y="690"/>
      <point x="153" y="690"/>
      <point x="153" y="690" type="curve"/>
      <point x="194" y="690" type="line"/>
      <point x="382.0" y="690.0" type="line" smooth="yes"/>
      <point x="553.0" y="690.0"/>
      <point x="659.0" y="570.0"/>
      <point x="659.0" y="357.0" type="curve" smooth="yes"/>
      <point x="659.0" y="145.0"/>
      <point x="553.0" y="20.0"/>
      <point x="382.0" y="20.0" type="curve" smooth="yes"/>
      <point x="193.0" y="20.0" type="line"/>
      <point x="153" y="20" type="line"/>
      <point x="153" y="20"/>
      <point x="153" y="20"/>
      <point x="153" y="20" type="curve"/>
      <point x="53.0" y="20.0" type="line"/>
      <point x="53.0" y="0.0" type="line"/>
      <point x="382.0" y="0.0" type="line" smooth="yes"/>
      <point x="604.0" y="0.0"/>
      <point x="756.0" y="141.0"/>
    </contour>
  </outline>
</glyph>
<glyph name="N" format="1">
  <advance width="777"/>
  <unicode hex="004E"/>
  <outline>
    <contour>
      <point x="498.0" y="710.0" type="line"/>
      <point x="498.0" y="690.0" type="line"/>
      <point x="603" y="690" type="line"/>
      <point x="603" y="690"/>
      <point x="603" y="690"/>
      <point x="603" y="690" type="curve"/>
      <point x="629" y="690" type="line"/>
      <point x="629" y="690"/>
      <point x="629" y="690"/>
      <point x="629" y="690" type="curve"/>
      <point x="724.0" y="690.0" type="line"/>
      <point x="724.0" y="710.0" type="line"/>
    </contour>
    <contour>
      <point x="256" y="710" type="line"/>
      <point x="53" y="710" type="line"/>
      <point x="53" y="690" type="line"/>
      <point x="153" y="690" type="line"/>
      <point x="153" y="690"/>
      <point x="153" y="690"/>
      <point x="153" y="690" type="curve"/>
      <point x="153" y="0" type="line"/>
      <point x="179" y="0" type="line"/>
      <point x="179" y="699" type="line"/>
      <point x="171" y="692" type="line"/>
      <point x="572" y="0" type="line"/>
      <point x="629" y="0" type="line"/>
      <point x="629" y="710" type="line"/>
      <point x="603" y="710" type="line"/>
      <point x="603" y="65" type="line"/>
      <point x="626" y="69" type="line"/>
    </contour>
    <contour>
      <point x="53.0" y="20.0" type="line"/>
      <point x="53.0" y="0.0" type="line"/>
      <point x="279.0" y="0.0" type="line"/>
      <point x="279.0" y="20.0" type="line"/>
      <point x="179" y="20" type="line"/>
      <point x="179" y="20"/>
      <point x="179" y="20"/>
      <point x="179" y="20" type="curve"/>
      <point x="153" y="20" type="line"/>
      <point x="153" y="20"/>
      <point x="153" y="20"/>
      <point x="153" y="20" type="curve"/>
    </contour>
  </outline>
</glyph>
<glyph name="S" format="1">
  <advance width="635"/>
  <unicode hex="0053"/>
  <outline>
    <contour>
      <point x="493" y="172" type="curve" smooth="yes"/>
      <point x="493" y="55"/>
      <point x="427" y="15"/>
      <point x="327" y="15" type="curve" smooth="yes"/>
      <point x="223" y="15"/>
      <point x="161" y="68"/>
      <point x="139" y="204" type="curve"/>
      <point x="45" y="204" type="line"/>
      <point x="67" y="61"/>
      <point x="179" y="-10"/>
      <point x="327" y="-10" type="curve" smooth="yes"/>
      <point x="454" y="-10"/>
      <point x="575" y="55"/>
      <point x="575" y="191" type="curve" smooth="yes"/>
      <point x="575" y="467"/>
      <point x="158.0" y="339.0"/>
      <point x="158" y="547" type="curve" smooth="yes"/>
      <point x="158.0" y="635.0"/>
      <point x="206" y="695"/>
      <point x="310" y="695" type="curve" smooth="yes"/>
      <point x="415" y="695"/>
      <point x="445" y="632"/>
      <point x="467" y="527" type="curve"/>
      <point x="559" y="527" type="line"/>
      <point x="537" y="643"/>
      <point x="456" y="720"/>
      <point x="310" y="720" type="curve" smooth="yes"/>
      <point x="174" y="720"/>
      <point x="81" y="642"/>
      <point x="81" y="530" type="curve" smooth="yes"/>
      <point x="81.0" y="265.0"/>
      <point x="493" y="393"/>
    </contour>
  </outline>
</glyph>
<glyph name="V" format="1">
  <advance width="706"/>
  <unicode hex="0056"/>
  <outline>
    <contour>
      <point x="631" y="710" type="line"/>
      <point x="607" y="710" type="line"/>
      <point x="362" y="0" type="line"/>
      <point x="383" y="0" type="line"/>
    </contour>
    <contour>
      <point x="161" y="710" type="line"/>
      <point x="75" y="710" type="line"/>
      <point x="323" y="0" type="line"/>
      <point x="369" y="0" type="line"/>
      <point x="387" y="52" type="line"/>
    </contour>
    <contour>
      <point x="681" y="710" type="line"/>
      <point x="494" y="710" type="line"/>
      <point x="494" y="690" type="line"/>
      <point x="600" y="690" type="line"/>
      <point x="600" y="690"/>
      <point x="600" y="690"/>
      <point x="600" y="690" type="curve"/>
      <point x="624" y="690" type="line"/>
      <point x="624" y="690"/>
      <point x="624" y="690"/>
      <point x="624" y="690" type="curve"/>
      <point x="681" y="690" type="line"/>
    </contour>
    <contour>
      <point x="25" y="710" type="line"/>
      <point x="25" y="690" type="line"/>
      <point x="82" y="690" type="line"/>
      <point x="82" y="690"/>
      <point x="82" y="690"/>
      <point x="82" y="690" type="curve"/>
      <point x="167" y="690" type="line"/>
      <point x="167" y="690"/>
      <point x="167" y="690"/>
      <point x="167" y="690" type="curve"/>
      <point x="266" y="690" type="line"/>
      <point x="266" y="710" type="line"/>
    </contour>
  </outline>
</glyph>
<glyph name="W" format="1">
  <advance width="1108"/>
  <unicode hex="0057"/>
  <outline>
    <contour>
      <point x="181" y="710" type="line"/>
      <point x="95" y="710" type="line"/>
      <point x="302" y="0" type="line"/>
      <point x="374" y="0" type="line"/>
      <point x="373" y="32" type="line"/>
    </contour>
    <contour>
      <point x="25" y="710" type="line"/>
      <point x="25" y="690" type="line"/>
      <point x="100" y="690" type="line"/>
      <point x="100" y="690"/>
      <point x="100" y="690"/>
      <point x="100" y="690" type="curve"/>
      <point x="187" y="690" type="line"/>
      <point x="187" y="690"/>
      <point x="187" y="690"/>
      <point x="187" y="690" type="curve"/>
      <point x="301" y="690" type="line"/>
      <point x="301" y="710" type="line"/>
    </contour>
    <contour>
      <point x="986" y="710" type="line"/>
      <point x="781" y="0" type="line"/>
      <point x="805" y="0" type="line"/>
      <point x="1013" y="710" type="line"/>
    </contour>
    <contour>
      <point x="1083" y="710" type="line"/>
      <point x="866" y="710" type="line"/>
      <point x="866" y="690" type="line"/>
      <point x="980" y="690" type="line"/>
      <point x="980" y="690"/>
      <point x="980" y="690"/>
      <point x="980" y="690" type="curve"/>
      <point x="1007" y="690" type="line"/>
      <point x="1007" y="690"/>
      <point x="1007" y="690"/>
      <point x="1007" y="690" type="curve"/>
      <point x="1083" y="690" type="line"/>
    </contour>
    <contour>
      <point x="540" y="673" type="line"/>
      <point x="726" y="0" type="line"/>
      <point x="800" y="0" type="line"/>
      <point x="797" y="32" type="line"/>
      <point x="611" y="710" type="line"/>
      <point x="534" y="710" type="line"/>
      <point x="354" y="0" type="line"/>
      <point x="381" y="0" type="line"/>
      <point x="554" y="693" type="line"/>
    </contour>
  </outline>
</glyph>
<glyph name="f" format="1">
  <advance width="432"/>
  <unicode hex="0066"/>
  <outline>
    <contour>
      <point x="38" y="20" type="line"/>
      <point x="38" y="0" type="line"/>
      <point x="363" y="0" type="line"/>
      <point x="363" y="20" type="line"/>
      <point x="233" y="20" type="line"/>
      <point x="233" y="20"/>
      <point x="233" y="20"/>
      <point x="233" y="20" type="curve"/>
      <point x="148" y="20" type="line"/>
      <point x="148" y="20"/>
      <point x="148" y="20"/>
      <point x="148" y="20" type="curve"/>
    </contour>
    <contour>
      <point x="38" y="528" type="line"/>
      <point x="38" y="508" type="line"/>
      <point x="402" y="508" type="line"/>
      <point x="402" y="528" type="line"/>
    </contour>
    <contour>
      <point x="438" y="642" type="curve"/>
      <point x="517" y="642" type="line"/>
      <point x="505" y="709"/>
      <point x="441" y="761"/>
      <point x="342" y="761" type="curve" smooth="yes"/>
      <point x="243" y="761"/>
      <point x="148" y="717"/>
      <point x="148" y="567" type="curve" smooth="yes"/>
      <point x="148" y="0" type="line"/>
      <point x="233" y="0" type="line"/>
      <point x="233" y="567" type="line" smooth="yes"/>
      <point x="233" y="690"/>
      <point x="271" y="741"/>
      <point x="342" y="741" type="curve" smooth="yes"/>
      <point x="400" y="741"/>
      <point x="428" y="703"/>
    </contour>
  </outline>
</glyph>
<glyph name="m" format="1">
  <advance width="977"/>
  <unicode hex="006D"/>
  <outline>
    <contour>
      <point x="374" y="513" type="curve" smooth="yes"/>
      <point x="436" y="513"/>
      <point x="456" y="476"/>
      <point x="456" y="381" type="curve" smooth="yes"/>
      <point x="456" y="0" type="line"/>
      <point x="541" y="0" type="line"/>
      <point x="541" y="381" type="line"/>
      <point x="541" y="489"/>
      <point x="478" y="538"/>
      <point x="387" y="538" type="curve" smooth="yes"/>
      <point x="297" y="538"/>
      <point x="247" y="483"/>
      <point x="200" y="405" type="curve"/>
      <point x="209" y="381" type="line"/>
      <point x="257" y="464"/>
      <point x="306" y="513"/>
    </contour>
    <contour>
      <point x="692" y="513" type="curve" smooth="yes"/>
      <point x="754" y="513"/>
      <point x="774" y="476"/>
      <point x="774" y="381" type="curve" smooth="yes"/>
      <point x="774" y="0" type="line"/>
      <point x="859" y="0" type="line"/>
      <point x="859" y="381" type="line"/>
      <point x="859" y="489"/>
      <point x="796" y="538"/>
      <point x="705" y="538" type="curve" smooth="yes"/>
      <point x="615" y="538"/>
      <point x="565" y="483"/>
      <point x="519" y="405" type="curve"/>
      <point x="527" y="381" type="line"/>
      <point x="575" y="464"/>
      <point x="625" y="513"/>
    </contour>
    <contour>
      <point x="48.0" y="0.0" type="line"/>
      <point x="298.0" y="0.0" type="line"/>
      <point x="298.0" y="20.0" type="line"/>
      <point x="223" y="20" type="line"/>
      <point x="223" y="20"/>
      <point x="223" y="20"/>
      <point x="223" y="20" type="curve"/>
      <point x="138.0" y="20.0" type="line"/>
      <point x="138" y="20"/>
      <point x="138" y="20"/>
      <point x="138.0" y="20.0" type="curve"/>
      <point x="48.0" y="20.0" type="line"/>
    </contour>
    <contour>
      <point x="48" y="528" type="line"/>
      <point x="48" y="508" type="line"/>
      <point x="138" y="508" type="line"/>
      <point x="138" y="508"/>
      <point x="138" y="508"/>
      <point x="138" y="508" type="curve"/>
      <point x="138" y="0" type="line"/>
      <point x="223" y="0" type="line"/>
      <point x="223" y="418" type="line"/>
      <point x="218" y="426" type="line"/>
      <point x="218" y="528" type="line"/>
    </contour>
    <contour>
      <point x="381.0" y="0.0" type="line"/>
      <point x="616.0" y="0.0" type="line"/>
      <point x="616.0" y="20.0" type="line"/>
      <point x="541" y="20" type="line"/>
      <point x="541" y="20"/>
      <point x="541" y="20"/>
      <point x="541" y="20" type="curve"/>
      <point x="456.0" y="20.0" type="line"/>
      <point x="456" y="20"/>
      <point x="456" y="20"/>
      <point x="456.0" y="20.0" type="curve"/>
      <point x="381.0" y="20.0" type="line"/>
    </contour>
    <contour>
      <point x="949.0" y="0.0" type="line"/>
      <point x="949.0" y="20.0" type="line"/>
      <point x="859" y="20" type="line"/>
      <point x="859" y="20"/>
      <point x="859" y="20"/>
      <point x="859" y="20" type="curve"/>
      <point x="774.0" y="20.0" type="line"/>
      <point x="774" y="23"/>
      <point x="774" y="20"/>
      <point x="774.0" y="20.0" type="curve"/>
      <point x="699.0" y="20.0" type="line"/>
      <point x="699.0" y="0.0" type="line"/>
    </contour>
  </outline>
</glyph>
<glyph name="n" format="1">
  <advance width="681"/>
  <unicode hex="006E"/>
  <outline>
    <contour>
      <point x="46.0" y="0.0" type="line"/>
      <point x="301.0" y="0.0" type="line"/>
      <point x="301.0" y="20.0" type="line"/>
      <point x="221" y="20" type="line"/>
      <point x="221" y="20"/>
      <point x="221" y="20"/>
      <point x="221" y="20" type="curve"/>
      <point x="136.0" y="20.0" type="line"/>
      <point x="136" y="20"/>
      <point x="136" y="20"/>
      <point x="136.0" y="20.0" type="curve"/>
      <point x="46.0" y="20.0" type="line"/>
    </contour>
    <contour>
      <point x="398.0" y="0.0" type="line"/>
      <point x="653.0" y="0.0" type="line"/>
      <point x="653.0" y="20.0" type="line"/>
      <point x="563" y="20" type="line"/>
      <point x="563" y="20"/>
      <point x="563" y="20"/>
      <point x="563" y="20" type="curve"/>
      <point x="478" y="20" type="line"/>
      <point x="478" y="20"/>
      <point x="478" y="20"/>
      <point x="478" y="20" type="curve"/>
      <point x="398.0" y="20.0" type="line"/>
    </contour>
    <contour>
      <point x="384" y="513" type="curve" smooth="yes"/>
      <point x="455" y="513"/>
      <point x="478" y="477"/>
      <point x="478" y="381" type="curve" smooth="yes"/>
      <point x="478" y="0" type="line"/>
      <point x="563" y="0" type="line"/>
      <point x="563" y="381" type="line"/>
      <point x="563" y="489"/>
      <point x="495" y="538"/>
      <point x="397" y="538" type="curve" smooth="yes"/>
      <point x="301" y="538"/>
      <point x="246" y="484"/>
      <point x="198" y="405" type="curve"/>
      <point x="207" y="381" type="line"/>
      <point x="256" y="465"/>
      <point x="311" y="513"/>
    </contour>
    <contour>
      <point x="46" y="528" type="line"/>
      <point x="46" y="508" type="line"/>
      <point x="136" y="508" type="line"/>
      <point x="136" y="508"/>
      <point x="136" y="508"/>
      <point x="136" y="508" type="curve"/>
      <point x="136" y="0" type="line"/>
      <point x="221" y="0" type="line"/>
      <point x="221" y="418" type="line"/>
      <point x="216" y="426" type="line"/>
      <point x="216" y="528" type="line"/>
    </contour>
  </outline>
</glyph>
<glyph name="o" format="1">
  <advance width="650"/>
  <unicode hex="006F"/>
  <outline>
    <contour>
      <point x="325" y="537" type="curve"/>
      <point x="174" y="537"/>
      <point x="53" y="416"/>
      <point x="53" y="262" type="curve" smooth="yes"/>
      <point x="53" y="108"/>
      <point x="174" y="-12"/>
      <point x="325" y="-12" type="curve"/>
      <point x="476" y="-12"/>
      <point x="597" y="108"/>
      <point x="597" y="262" type="curve" smooth="yes"/>
      <point x="597" y="416"/>
      <point x="476" y="537"/>
    </contour>
    <contour>
      <point x="325" y="512" type="curve"/>
      <point x="438" y="512"/>
      <point x="507" y="409"/>
      <point x="507" y="262" type="curve" smooth="yes"/>
      <point x="507" y="115"/>
      <point x="438" y="13"/>
      <point x="325" y="13" type="curve"/>
      <point x="212" y="13"/>
      <point x="143" y="115"/>
      <point x="143" y="262" type="curve" smooth="yes"/>
      <point x="143" y="409"/>
      <point x="212" y="512"/>
    </contour>
  </outline>
</glyph>
<glyph name="p" format="1">
  <advance width="692"/>
  <unicode hex="0070"/>
  <outline>
    <contour>
      <point x="40.0" y="-230.0" type="line"/>
      <point x="325" y="-230" type="line"/>
      <point x="325" y="-210" type="line"/>
      <point x="215" y="-210" type="line"/>
      <point x="215" y="-210"/>
      <point x="215" y="-210"/>
      <point x="215" y="-210" type="curve"/>
      <point x="130" y="-210" type="line"/>
      <point x="130" y="-210"/>
      <point x="130" y="-210"/>
      <point x="130" y="-210" type="curve"/>
      <point x="40.0" y="-210.0" type="line"/>
    </contour>
    <contour>
      <point x="40" y="528" type="line"/>
      <point x="40" y="508" type="line"/>
      <point x="130" y="508" type="line"/>
      <point x="130" y="508"/>
      <point x="130" y="508"/>
      <point x="130" y="508" type="curve"/>
      <point x="130" y="-230" type="line"/>
      <point x="215" y="-230" type="line"/>
      <point x="215" y="403" type="line"/>
      <point x="211" y="411" type="line"/>
      <point x="211" y="528" type="line"/>
    </contour>
    <contour>
      <point x="549" y="267" type="curve" smooth="yes"/>
      <point x="549" y="113"/>
      <point x="493" y="14"/>
      <point x="391" y="14" type="curve" smooth="yes"/>
      <point x="301" y="14"/>
      <point x="239" y="59"/>
      <point x="187" y="158" type="curve"/>
      <point x="164" y="156" type="line"/>
      <point x="226" y="39"/>
      <point x="292" y="-11"/>
      <point x="391" y="-11" type="curve" smooth="yes"/>
      <point x="540" y="-11"/>
      <point x="639" y="102"/>
      <point x="639" y="267" type="curve" smooth="yes"/>
      <point x="639" y="429"/>
      <point x="540" y="538"/>
      <point x="394" y="538" type="curve" smooth="yes"/>
      <point x="294" y="538"/>
      <point x="233" y="474"/>
      <point x="169" y="354" type="curve"/>
      <point x="191" y="348" type="line"/>
      <point x="242" y="449"/>
      <point x="302" y="513"/>
      <point x="394" y="513" type="curve" smooth="yes"/>
      <point x="493" y="513"/>
      <point x="549" y="415"/>
    </contour>
  </outline>
</glyph>
<glyph name="w" format="1">
  <advance width="857"/>
  <unicode hex="0077"/>
  <outline>
    <contour>
      <point x="245" y="528" type="line"/>
      <point x="5" y="528" type="line"/>
      <point x="5" y="508" type="line"/>
      <point x="63" y="508" type="line"/>
      <point x="63" y="508"/>
      <point x="63" y="508"/>
      <point x="63" y="508" type="curve"/>
      <point x="150" y="508" type="line"/>
      <point x="150" y="508"/>
      <point x="150" y="508"/>
      <point x="150" y="508" type="curve"/>
      <point x="245" y="508" type="line"/>
    </contour>
    <contour>
      <point x="275" y="0" type="line"/>
      <point x="273" y="37" type="line"/>
      <point x="145" y="528" type="line"/>
      <point x="57" y="528" type="line"/>
      <point x="204" y="0" type="line"/>
    </contour>
    <contour>
      <point x="619" y="0" type="line"/>
      <point x="627" y="0" type="line"/>
      <point x="771" y="528" type="line"/>
      <point x="745" y="528" type="line"/>
      <point x="618" y="34" type="line"/>
    </contour>
    <contour>
      <point x="651" y="528" type="line"/>
      <point x="651" y="508" type="line"/>
      <point x="740" y="508" type="line"/>
      <point x="740" y="508"/>
      <point x="740" y="508"/>
      <point x="740" y="508" type="curve"/>
      <point x="766" y="508" type="line"/>
      <point x="766" y="508"/>
      <point x="766" y="508"/>
      <point x="766" y="508" type="curve"/>
      <point x="827" y="508" type="line"/>
      <point x="827" y="528" type="line"/>
    </contour>
    <contour>
      <point x="408" y="479" type="line"/>
      <point x="554" y="0" type="line"/>
      <point x="625" y="0" type="line"/>
      <point x="621" y="37" type="line"/>
      <point x="475" y="528" type="line"/>
      <point x="413" y="528" type="line"/>
      <point x="270" y="44" type="line"/>
      <point x="268" y="0" type="line"/>
      <point x="277" y="0" type="line"/>
      <point x="419" y="477" type="line"/>
    </contour>
  </outline>
</glyph>
<glyph name="x" format="1">
  <advance width="630"/>
  <unicode hex="0078"/>
  <outline>
    <contour>
      <point x="268" y="528" type="line"/>
      <point x="31" y="528" type="line"/>
      <point x="31" y="508" type="line"/>
      <point x="85" y="508" type="line"/>
      <point x="85" y="508"/>
      <point x="85" y="508"/>
      <point x="85" y="508" type="curve"/>
      <point x="180" y="508" type="line"/>
      <point x="180" y="508"/>
      <point x="180" y="508"/>
      <point x="180" y="508" type="curve"/>
      <point x="268" y="508" type="line"/>
    </contour>
    <contour>
      <point x="387" y="528" type="line"/>
      <point x="387" y="508" type="line"/>
      <point x="498" y="508" type="line"/>
      <point x="498" y="508"/>
      <point x="498" y="508"/>
      <point x="498" y="508" type="curve"/>
      <point x="524" y="508" type="line"/>
      <point x="524" y="508"/>
      <point x="524" y="508"/>
      <point x="524" y="508" type="curve"/>
      <point x="617" y="508" type="line"/>
      <point x="617" y="528" type="line"/>
    </contour>
    <contour>
      <point x="371" y="0" type="line"/>
      <point x="620" y="0" type="line"/>
      <point x="620" y="20" type="line"/>
      <point x="561" y="20" type="line"/>
      <point x="561" y="20"/>
      <point x="561" y="20"/>
      <point x="561" y="20" type="curve"/>
      <point x="465" y="20" type="line"/>
      <point x="465" y="20"/>
      <point x="465" y="20"/>
      <point x="465" y="20" type="curve"/>
      <point x="371" y="20" type="line"/>
    </contour>
    <contour>
      <point x="253" y="0" type="line"/>
      <point x="253" y="20" type="line"/>
      <point x="127" y="20" type="line"/>
      <point x="127" y="20"/>
      <point x="127" y="20"/>
      <point x="127" y="20" type="curve"/>
      <point x="98" y="20" type="line"/>
      <point x="98" y="20"/>
      <point x="98" y="20"/>
      <point x="98" y="20" type="curve"/>
      <point x="10" y="20" type="line"/>
      <point x="10" y="0" type="line"/>
    </contour>
    <contour>
      <point x="329" y="256" type="line"/>
      <point x="540" y="528" type="line"/>
      <point x="513" y="528" type="line"/>
      <point x="329" y="292" type="line"/>
    </contour>
    <contour>
      <point x="481.0" y="0.0" type="line"/>
      <point x="576.0" y="0.0" type="line"/>
      <point x="347.0" y="294.0" type="line"/>
      <point x="345.0" y="297.0" type="line"/>
      <point x="165.0" y="528.0" type="line"/>
      <point x="70.0" y="528.0" type="line"/>
      <point x="288.0" y="249.0" type="line"/>
      <point x="292.0" y="244.0" type="line"/>
    </contour>
    <contour>
      <point x="304" y="283" type="line"/>
      <point x="82" y="0" type="line"/>
      <point x="111" y="0" type="line"/>
      <point x="303" y="249" type="line"/>
    </contour>
  </outline>
</glyph>
<glyph name="z" format="1">
  <advance width="493"/>
  <unicode hex="007A"/>
  <outline>
    <contour>
      <point x="388" y="20" type="curve"/>
      <point x="388" y="20"/>
      <point x="388" y="20"/>
      <point x="388" y="20" type="curve"/>
      <point x="388" y="170" type="line"/>
      <point x="458" y="170" type="line"/>
      <point x="458" y="0" type="line"/>
      <point x="40" y="0" type="line"/>
      <point x="40" y="27" type="line"/>
      <point x="372" y="525" type="line"/>
      <point x="402" y="508" type="line"/>
      <point x="121" y="508" type="line"/>
      <point x="121" y="508"/>
      <point x="121" y="508"/>
      <point x="121" y="508" type="curve"/>
      <point x="121" y="368" type="line"/>
      <point x="51" y="368" type="line"/>
      <point x="51" y="528" type="line"/>
      <point x="51" y="528"/>
      <point x="446" y="528"/>
      <point x="446" y="528" type="curve"/>
      <point x="446" y="508" type="line"/>
      <point x="115" y="8" type="line"/>
      <point x="81" y="20" type="line"/>
      <point x="81" y="20"/>
      <point x="388" y="20"/>
    </contour>
  </outline>
</glyph>
<glyph name="f.slab" format="1">
  <advance width="426"/>
  <outline>
    <contour>
      <point x="38.0" y="20.0" type="line"/>
      <point x="38.0" y="0.0" type="line"/>
      <point x="363.0" y="0.0" type="line"/>
      <point x="363.0" y="20.0" type="line"/>
      <point x="233" y="20" type="line"/>
      <point x="233" y="20"/>
      <point x="233" y="20"/>
      <point x="233" y="20" type="curve"/>
      <point x="148" y="20" type="line"/>
      <point x="148" y="20"/>
      <point x="148" y="20"/>
      <point x="148" y="20" type="curve"/>
    </contour>
    <contour>
      <point x="38" y="528" type="line"/>
      <point x="38" y="508" type="line"/>
      <point x="395" y="508" type="line"/>
      <point x="395" y="528" type="line"/>
    </contour>
    <contour>
      <point x="427" y="622" type="line"/>
      <point x="504" y="622" type="line"/>
      <point x="504" y="739" type="line"/>
      <point x="479" y="750"/>
      <point x="425" y="761"/>
      <point x="371" y="761" type="curve" smooth="yes"/>
      <point x="267" y="761"/>
      <point x="148" y="711"/>
      <point x="148" y="561" type="curve" smooth="yes"/>
      <point x="148" y="0" type="line"/>
      <point x="233" y="0" type="line"/>
      <point x="233" y="561" type="line"/>
      <point x="233" y="693"/>
      <point x="294" y="736"/>
      <point x="371" y="736" type="curve" smooth="yes"/>
      <point x="391" y="736"/>
      <point x="416" y="734"/>
      <point x="427" y="730" type="curve"/>
    </contour>
  </outline>
</glyph>
<glyph name="four.alt" format="1">
  <advance width="603"/>
  <outline>
    <contour>
      <point x="245" y="20" type="line"/>
      <point x="245" y="0" type="line"/>
      <point x="573" y="0" type="line"/>
      <point x="573" y="20" type="line"/>
      <point x="453" y="20" type="line"/>
      <point x="453" y="20"/>
      <point x="453" y="20"/>
      <point x="453" y="20" type="curve"/>
      <point x="365" y="20" type="line"/>
      <point x="365" y="20"/>
      <point x="365" y="20"/>
      <point x="365" y="20" type="curve"/>
    </contour>
    <contour>
      <point x="365" y="512" type="line"/>
      <point x="365" y="0" type="line"/>
      <point x="453" y="0" type="line"/>
      <point x="453" y="512" type="line"/>
    </contour>
    <contour>
      <point x="35.0" y="187.0" type="line"/>
      <point x="583" y="187" type="line"/>
      <point x="583" y="207" type="line"/>
      <point x="583" y="207"/>
      <point x="44" y="207"/>
      <point x="44" y="207" type="curve"/>
      <point x="46" y="203" type="line"/>
      <point x="461.0" y="710.0" type="line"/>
      <point x="363" y="710" type="line"/>
      <point x="35" y="211" type="line"/>
    </contour>
  </outline>
</glyph>
<glyph name="g.ball" format="1">
  <advance width="660"/>
  <outline>
    <contour>
      <point x="317" y="142" type="curve" smooth="yes"/>
      <point x="445" y="142"/>
      <point x="540" y="221"/>
      <point x="540" y="339" type="curve" smooth="yes"/>
      <point x="540" y="456"/>
      <point x="445" y="538"/>
      <point x="317" y="538" type="curve" smooth="yes"/>
      <point x="189" y="538"/>
      <point x="94" y="456"/>
      <point x="94" y="339" type="curve" smooth="yes"/>
      <point x="94" y="221"/>
      <point x="189" y="142"/>
    </contour>
    <contour>
      <point x="317" y="516" type="curve" smooth="yes"/>
      <point x="400" y="516"/>
      <point x="454" y="448"/>
      <point x="454" y="339" type="curve" smooth="yes"/>
      <point x="454" y="228"/>
      <point x="400" y="164"/>
      <point x="317" y="164" type="curve" smooth="yes"/>
      <point x="234" y="164"/>
      <point x="180" y="228"/>
      <point x="180" y="339" type="curve" smooth="yes"/>
      <point x="180" y="448"/>
      <point x="234" y="516"/>
    </contour>
    <contour>
      <point x="289" y="-248" type="curve" smooth="yes"/>
      <point x="356" y="-248" type="line" smooth="yes"/>
      <point x="500" y="-248"/>
      <point x="618" y="-197"/>
      <point x="618" y="-82" type="curve" smooth="yes"/>
      <point x="618" y="10"/>
      <point x="550" y="53"/>
      <point x="425" y="53" type="curve" smooth="yes"/>
      <point x="224" y="53" type="line" smooth="yes"/>
      <point x="172" y="53"/>
      <point x="144" y="70"/>
      <point x="144" y="104" type="curve" smooth="yes"/>
      <point x="144" y="134"/>
      <point x="156" y="159"/>
      <point x="188" y="186" type="curve"/>
      <point x="198" y="192"/>
      <point x="192" y="213"/>
      <point x="182" y="209" type="curve"/>
      <point x="125" y="166"/>
      <point x="92" y="123"/>
      <point x="92" y="75" type="curve" smooth="yes"/>
      <point x="92" y="31"/>
      <point x="117" y="1"/>
      <point x="156" y="-17" type="curve"/>
      <point x="155" y="-18"/>
      <point x="149" y="-23"/>
      <point x="144" y="-27" type="curve"/>
      <point x="427" y="-27" type="line" smooth="yes"/>
      <point x="530" y="-27"/>
      <point x="561" y="-53"/>
      <point x="561" y="-103" type="curve" smooth="yes"/>
      <point x="561" y="-185"/>
      <point x="478" y="-228"/>
      <point x="356" y="-228" type="curve" smooth="yes"/>
      <point x="289" y="-228" type="line" smooth="yes"/>
      <point x="157" y="-228"/>
      <point x="97" y="-183"/>
      <point x="97" y="-124" type="curve" smooth="yes"/>
      <point x="97" y="-66"/>
      <point x="140" y="-36"/>
      <point x="189" y="-3" type="curve"/>
      <point x="180" y="4" type="line"/>
      <point x="103" y="-27"/>
      <point x="50" y="-60"/>
      <point x="50" y="-124" type="curve" smooth="yes"/>
      <point x="50" y="-209"/>
      <point x="146" y="-248"/>
    </contour>
    <contour>
      <point x="554" y="470" type="line" smooth="yes"/>
      <point x="611" y="453"/>
      <point x="638" y="472"/>
      <point x="638" y="506" type="curve" smooth="yes"/>
      <point x="638" y="540"/>
      <point x="611" y="546"/>
      <point x="567" y="539" type="curve" smooth="yes"/>
      <point x="416" y="514" type="line"/>
      <point x="429" y="508" type="line"/>
    </contour>
  </outline>
</glyph>
<glyph name="r.oval" format="1">
  <advance width="513"/>
  <outline>
    <contour>
      <point x="362" y="509" type="curve"/>
      <point x="374" y="456"/>
      <point x="403" y="416"/>
      <point x="441" y="416" type="curve" smooth="yes"/>
      <point x="473" y="416"/>
      <point x="490" y="442"/>
      <point x="490" y="472" type="curve" smooth="yes"/>
      <point x="490.0" y="515.676470588"/>
      <point x="454.0" y="538.0"/>
      <point x="401" y="538" type="curve" smooth="yes"/>
      <point x="310" y="538"/>
      <point x="236" y="473"/>
      <point x="209" y="385" type="curve"/>
      <point x="214" y="360" type="line"/>
      <point x="259" y="462"/>
      <point x="316" y="507"/>
      <point x="404" y="507" type="curve"/>
      <point x="398" y="514"/>
      <point x="371" y="514"/>
    </contour>
    <contour>
      <point x="48.0" y="20.0" type="line"/>
      <point x="48.0" y="0.0" type="line"/>
      <point x="338.0" y="0.0" type="line"/>
      <point x="338.0" y="20.0" type="line"/>
      <point x="228" y="20" type="line"/>
      <point x="228" y="20" type="line"/>
      <point x="138" y="20" type="line"/>
      <point x="138" y="20" type="line"/>
    </contour>
    <contour>
      <point x="222" y="528" type="line"/>
      <point x="48" y="528" type="line"/>
      <point x="48" y="508" type="line"/>
      <point x="138" y="508" type="line"/>
      <point x="138" y="508" type="line"/>
      <point x="138" y="0" type="line"/>
      <point x="228" y="0" type="line"/>
      <point x="228" y="401" type="line"/>
      <point x="222" y="409" type="line"/>
    </contour>
  </outline>
</glyph>
<glyph name="s.bulb" format="1">
  <advance width="497"/>
  <outline>
    <contour>
      <point x="251" y="-11" type="curve" smooth="yes"/>
      <point x="368" y="-11"/>
      <point x="452" y="51"/>
      <point x="452" y="142" type="curve" smooth="yes"/>
      <point x="452" y="341"/>
      <point x="126" y="272"/>
      <point x="126" y="418" type="curve" smooth="yes"/>
      <point x="126" y="470"/>
      <point x="167" y="516"/>
      <point x="238" y="516" type="curve" smooth="yes"/>
      <point x="305" y="516"/>
      <point x="332" y="495"/>
      <point x="354" y="461" type="curve" smooth="yes"/>
      <point x="379" y="421"/>
      <point x="386" y="408"/>
      <point x="405" y="408" type="curve"/>
      <point x="427" y="408"/>
      <point x="437" y="436"/>
      <point x="437" y="467" type="curve" smooth="yes"/>
      <point x="437" y="487"/>
      <point x="436" y="501"/>
      <point x="420" y="511" type="curve" smooth="yes"/>
      <point x="396" y="526"/>
      <point x="334" y="538"/>
      <point x="251" y="538" type="curve" smooth="yes"/>
      <point x="132" y="538"/>
      <point x="59" y="480"/>
      <point x="59" y="396" type="curve" smooth="yes"/>
      <point x="59" y="197"/>
      <point x="382" y="265"/>
      <point x="382" y="123" type="curve" smooth="yes"/>
      <point x="382" y="49"/>
      <point x="321" y="11"/>
      <point x="256" y="11" type="curve" smooth="yes"/>
      <point x="183" y="11"/>
      <point x="157" y="37"/>
      <point x="132" y="78" type="curve" smooth="yes"/>
      <point x="104" y="123"/>
      <point x="95.3571428571" y="138.0"/>
      <point x="75" y="138" type="curve" smooth="yes"/>
      <point x="51.0" y="138.0"/>
      <point x="38.0" y="109.603448276"/>
      <point x="38" y="77" type="curve" smooth="yes"/>
      <point x="38.0" y="54.6304347826"/>
      <point x="41.5693952606" y="41.4306047394"/>
      <point x="55" y="28" type="curve" smooth="yes"/>
      <point x="74" y="9"/>
      <point x="153" y="-11"/>
    </contour>
  </outline>
</glyph>
<glyph name="seven.alt" format="1">
  <advance width="531"/>
  <outline>
    <contour>
      <point x="149" y="0" type="line"/>
      <point x="485" y="652" type="line"/>
      <point x="497" y="638" type="line"/>
      <point x="70" y="638" type="line"/>
      <point x="70" y="638"/>
      <point x="70" y="638"/>
      <point x="70" y="638" type="curve"/>
      <point x="70" y="506" type="line"/>
      <point x="50" y="506" type="line"/>
      <point x="50" y="710" type="line"/>
      <point x="506" y="710" type="line"/>
      <point x="506" y="640" type="line"/>
      <point x="246" y="0" type="line"/>
    </contour>
  </outline>
</glyph>
<glyph name="seven.alt2" format="1">
  <advance width="566"/>
  <outline>
    <contour>
      <point x="217" y="0" type="line"/>
      <point x="210.9999313840377" y="376.0042999336382"/>
      <point x="502" y="395"/>
      <point x="502" y="640" type="curve" smooth="yes"/>
      <point x="502" y="679" type="line"/>
      <point x="518" y="638" type="line"/>
      <point x="96" y="638" type="line"/>
      <point x="96" y="638"/>
      <point x="96" y="638"/>
      <point x="96" y="638" type="curve"/>
      <point x="96" y="506" type="line"/>
      <point x="76" y="506" type="line"/>
      <point x="76" y="710" type="line"/>
      <point x="522" y="710" type="line"/>
      <point x="522" y="660" type="line" smooth="yes"/>
      <point x="522" y="394"/>
      <point x="300" y="388"/>
      <point x="310" y="0" type="curve"/>
    </contour>
  </outline>
</glyph>
<glyph name="seven.old" format="1">
  <advance width="525"/>
  <outline>
    <contour>
      <point x="113" y="-188" type="line"/>
      <point x="315" y="74"/>
      <point x="455" y="255"/>
      <point x="455" y="500" type="curve"/>
      <point x="465" y="456" type="line"/>
      <point x="61" y="456" type="line"/>
      <point x="61" y="456"/>
      <point x="71" y="508"/>
      <point x="71" y="508" type="curve"/>
      <point x="71" y="324" type="line"/>
      <point x="51" y="324" type="line"/>
      <point x="51" y="528" type="line"/>
      <point x="475" y="528" type="line"/>
      <point x="475" y="504" type="line" smooth="yes"/>
      <point x="475" y="228"/>
      <point x="386" y="59"/>
      <point x="224" y="-188" type="curve"/>
    </contour>
  </outline>
</glyph>
<glyph name="three.old" format="1">
  <advance width="613"/>
  <outline>
    <contour>
      <point x="327" y="194" type="line"/>
      <point x="465.6" y="194.0"/>
      <point x="558" y="133"/>
      <point x="558" y="14" type="curve" smooth="yes"/>
      <point x="558" y="-123"/>
      <point x="444.540650406504" y="-193.0"/>
      <point x="311" y="-193" type="curve" smooth="yes"/>
      <point x="172.46511627906978" y="-193.0"/>
      <point x="68.99224238748353" y="-121.93474478883198"/>
      <point x="52" y="21" type="curve"/>
      <point x="146" y="21" type="line"/>
      <point x="156.99633940151662" y="-112.95540725483863"/>
      <point x="216.4268292682927" y="-168.0"/>
      <point x="311" y="-168" type="curve" smooth="yes"/>
      <point x="397.5548387096774" y="-168.0"/>
      <point x="467" y="-116"/>
      <point x="467" y="14" type="curve" smooth="yes"/>
      <point x="467" y="140"/>
      <point x="401.61077844311376" y="177"/>
      <point x="299" y="177" type="curve" smooth="yes"/>
      <point x="221" y="177" type="line"/>
      <point x="221" y="197" type="line"/>
      <point x="288" y="197" type="line" smooth="yes"/>
      <point x="383.6462585034014" y="197"/>
      <point x="436" y="258"/>
      <point x="436" y="360" type="curve" smooth="yes"/>
      <point x="436" y="460"/>
      <point x="395.6551724137931" y="512.0"/>
      <point x="319" y="512" type="curve" smooth="yes"/>
      <point x="230.37142857142857" y="512.0"/>
      <point x="187.9957001629357" y="445.95055187376056"/>
      <point x="178" y="331" type="curve"/>
      <point x="86" y="331" type="line"/>
      <point x="100.9924197311283" y="456.93632574147756"/>
      <point x="190.44827586206895" y="537.0"/>
      <point x="319" y="537" type="curve" smooth="yes"/>
      <point x="444.6188118811881" y="537.0"/>
      <point x="522" y="467"/>
      <point x="522" y="360" type="curve" smooth="yes"/>
      <point x="522" y="254"/>
      <point x="437.6111111111111" y="190.0"/>
      <point x="305" y="190" type="curve"/>
    </contour>
  </outline>
</glyph>
<glyph name="y.alt3" format="1">
  <advance width="601"/>
  <outline>
    <contour>
      <point x="253" y="528" type="line"/>
      <point x="5" y="528" type="line"/>
      <point x="5" y="508" type="line"/>
      <point x="81" y="508" type="line"/>
      <point x="81" y="508"/>
      <point x="81" y="508"/>
      <point x="81" y="508" type="curve"/>
      <point x="168" y="508" type="line"/>
      <point x="168" y="508"/>
      <point x="168" y="508"/>
      <point x="168" y="508" type="curve"/>
      <point x="253" y="508" type="line"/>
    </contour>
    <contour>
      <point x="327" y="0" type="line"/>
      <point x="355" y="57" type="line"/>
      <point x="140" y="528" type="line"/>
      <point x="52" y="528" type="line"/>
      <point x="311" y="-34" type="line"/>
    </contour>
    <contour>
      <point x="429" y="528" type="line"/>
      <point x="429" y="508" type="line"/>
      <point x="514" y="508" type="line"/>
      <point x="514" y="508"/>
      <point x="514" y="508"/>
      <point x="514" y="508" type="curve"/>
      <point x="542" y="508" type="line"/>
      <point x="542" y="508"/>
      <point x="542" y="508"/>
      <point x="542" y="508" type="curve"/>
      <point x="597" y="508" type="line"/>
      <point x="597" y="528" type="line"/>
    </contour>
    <contour>
      <point x="63" y="-102" type="curve"/>
      <point x="-18" y="-102" type="line"/>
      <point x="-6" y="-198"/>
      <point x="56" y="-237"/>
      <point x="126" y="-237" type="curve" smooth="yes"/>
      <point x="229" y="-237"/>
      <point x="280" y="-141"/>
      <point x="344" y="17" type="curve" smooth="yes"/>
      <point x="550" y="528" type="line"/>
      <point x="522" y="528" type="line"/>
      <point x="336" y="61" type="line" smooth="yes"/>
      <point x="268.23062618255165" y="-109.15213748789446"/>
      <point x="219" y="-212"/>
      <point x="135" y="-212" type="curve" smooth="yes"/>
      <point x="94" y="-212"/>
      <point x="73" y="-188"/>
    </contour>
  </outline>
</glyph>
<glyph name="y.alt4" format="1">
  <advance width="659"/>
  <outline>
    <contour>
      <point x="118" y="508" type="line"/>
      <point x="118" y="508"/>
      <point x="118" y="508"/>
      <point x="118" y="508" type="curve"/>
      <point x="28" y="508" type="line"/>
      <point x="28" y="528" type="line"/>
      <point x="203" y="528" type="line"/>
      <point x="203" y="147" type="line" smooth="yes"/>
      <point x="203" y="51"/>
      <point x="226" y="14"/>
      <point x="295" y="14" type="curve" smooth="yes"/>
      <point x="367" y="14"/>
      <point x="422" y="62"/>
      <point x="470" y="147" type="curve"/>
      <point x="479" y="123" type="line"/>
      <point x="431" y="43"/>
      <point x="377" y="-11"/>
      <point x="282" y="-11" type="curve" smooth="yes"/>
      <point x="186" y="-11"/>
      <point x="118" y="38"/>
      <point x="118" y="147" type="curve" smooth="yes"/>
    </contour>
    <contour>
      <point x="541" y="17" type="line" smooth="yes"/>
      <point x="541" y="-153"/>
      <point x="451" y="-247"/>
      <point x="298" y="-247" type="curve" smooth="yes"/>
      <point x="162" y="-247"/>
      <point x="77" y="-182"/>
      <point x="67" y="-81" type="curve"/>
      <point x="156" y="-81" type="line"/>
      <point x="166" y="-171"/>
      <point x="213" y="-222"/>
      <point x="298" y="-222" type="curve" smooth="yes"/>
      <point x="398" y="-222"/>
      <point x="456" y="-151.185185185"/>
      <point x="456" y="17" type="curve" smooth="yes"/>
      <point x="456" y="508" type="line"/>
      <point x="456" y="508"/>
      <point x="456" y="508"/>
      <point x="456" y="508" type="curve"/>
      <point x="356" y="508" type="line"/>
      <point x="356" y="528" type="line"/>
      <point x="541" y="528" type="line"/>
    </contour>
  </outline>
</glyph>
